<svg id="Layer_1" data-name="Layer 1" xmlns="http://www.w3.org/2000/svg" xmlns:xlink="http://www.w3.org/1999/xlink" viewBox="0 0 1215.74 381.89"><defs><style>.cls-1{fill:url(#linear-gradient);}.cls-2{fill:url(#linear-gradient-2);}.cls-3{fill:url(#linear-gradient-3);}.cls-4{fill:#19084d;}</style><linearGradient id="linear-gradient" x1="28.39" y1="357.98" x2="226.05" y2="67.42" gradientUnits="userSpaceOnUse"><stop offset="0.04" stop-color="#2a2a8c"/><stop offset="0.5" stop-color="#19084d"/><stop offset="0.65" stop-color="#1d115d"/><stop offset="0.95" stop-color="#292888"/><stop offset="0.97" stop-color="#2a2a8c"/></linearGradient><linearGradient id="linear-gradient-2" x1="404.18" y1="401.76" x2="230.54" y2="63.29" gradientUnits="userSpaceOnUse"><stop offset="0.1"/><stop offset="0.23" stop-color="#010102"/><stop offset="0.29" stop-color="#030309"/><stop offset="0.33" stop-color="#070716"/><stop offset="0.37" stop-color="#0c0c28"/><stop offset="0.4" stop-color="#13133f"/><stop offset="0.43" stop-color="#1c1c5c"/><stop offset="0.45" stop-color="#25257d"/><stop offset="0.46" stop-color="#2a2a8c"/><stop offset="0.61" stop-color="#241e74"/><stop offset="0.81" stop-color="#1d0f58"/><stop offset="0.93" stop-color="#1a0a4e"/></linearGradient><linearGradient id="linear-gradient-3" x1="424.42" y1="391.38" x2="250.78" y2="52.91" gradientUnits="userSpaceOnUse"><stop offset="0.1" stop-color="#19084d"/><stop offset="0.22" stop-color="#1a094f"/><stop offset="0.28" stop-color="#1b0b56"/><stop offset="0.32" stop-color="#1f1063"/><stop offset="0.36" stop-color="#231675"/><stop offset="0.39" stop-color="#2a1e8c"/><stop offset="0.41" stop-color="#3128a9"/><stop offset="0.44" stop-color="#3a34ca"/><stop offset="0.46" stop-color="#4441f0"/><stop offset="0.5" stop-color="#3f3bde"/><stop offset="0.65" stop-color="#2f25a0"/><stop offset="0.78" stop-color="#231573"/><stop offset="0.87" stop-color="#1c0c57"/><stop offset="0.93" stop-color="#19084d"/></linearGradient></defs><path class="cls-1" d="M263,3A435.45,435.45,0,0,1,225.58,175.8c-39,88.08-106.24,161-190,206.09-1-1.2-1.95-2.41-2.93-3.64l-.08-.09A237.13,237.13,0,0,1,0,315.89C111.58,256,187.6,138.34,188.15,2.87h0A239.06,239.06,0,0,1,263,3Z"/><path class="cls-2" d="M263,3a239.8,239.8,0,0,0-74.8-.15A435.31,435.31,0,0,0,225.59,175.8,437.07,437.07,0,0,0,260.08,239a520.55,520.55,0,0,0,53.26-54.84A354.83,354.83,0,0,1,263.11,3.05.18.18,0,0,0,263,3Z"/><path class="cls-3" d="M369.62,255.79a406.51,406.51,0,0,1-52.39,53,426.56,426.56,0,0,0,97.85,72.73,236.77,236.77,0,0,0,35.21-66.13A357.56,357.56,0,0,1,369.62,255.79Z"/><path class="cls-4" d="M418.49,99.24c-52.73,162.22-204,280-383.21,282.59A236.26,236.26,0,0,1,0,315.92q14.43,1.26,29.17,1.24c165.06,0,303-116.1,336.67-271.08A238.86,238.86,0,0,1,418.49,99.24Z"/><path d="M634.21,183.79v103H613.87V274.2a46.17,46.17,0,0,1-35.14,15.6c-29.41,0-51.32-22.51-51.32-54.49s21.91-54.68,51.32-54.68a46.36,46.36,0,0,1,35.14,15.79V183.79Zm-20.34,51.52c0-21.12-14.6-34.54-32.77-34.54s-32.57,14.41-32.57,34.54,14.41,34.55,32.57,34.55S613.87,256.43,613.87,235.31Z"/><path d="M683.94,287V142.33h21.13V287Z"/><path d="M854.5,184v90c0,37.11-20.13,56.85-51.52,56.85-23.69,0-37.9-10.86-46.2-21.32l15.6-13.62a35.27,35.27,0,0,0,29.61,15c19,0,31.39-12.24,31.39-34.74v-.6A46.85,46.85,0,0,1,799.23,290c-29.42,0-51.33-22.51-51.33-54.49s21.91-54.68,51.33-54.68c14.41,0,26.45,6.31,35.14,15.79V184Zm-20.13,51.52c0-21.12-14.61-34.55-32.77-34.55S769,215.37,769,235.51s14.41,34.55,32.58,34.55S834.37,256.63,834.37,235.51Z"/><path d="M984.19,255.05,1000,268.48c-11.25,13-28.42,21.32-48.36,21.32-31.59,0-54.49-23.49-54.49-55.08,0-30.4,22.31-54.09,53.3-54.09s53.5,23.69,53.5,54.09h-.2a70,70,0,0,1-.59,9.28H918.65c3.16,15.59,15,26.45,33,26.45A40.75,40.75,0,0,0,984.19,255.05Zm-65.34-29.61h63.56c-3.35-14.8-14.6-25.27-32-25.27C933.26,200.17,922.2,210.64,918.85,225.44Z"/><path d="M1215.74,227.22V287h-21.32V228.6c0-17.77-9.08-27.64-25.07-27.64-16.78,0-27.64,10.47-27.64,32.18V287h-21.12V228.6c0-17.77-9.08-27.64-25.07-27.64-16.78,0-27.83,10.47-27.83,32.18V287h-21.13V184h20.14v11.45a46.73,46.73,0,0,1,34-14.42c17.57,0,29.42,6.91,35.73,19.55a47,47,0,0,1,38.3-19.55C1202.12,181,1215.74,197.8,1215.74,227.22Z"/></svg>