<svg id="Layer_1" data-name="Layer 1" xmlns="http://www.w3.org/2000/svg" xmlns:xlink="http://www.w3.org/1999/xlink" viewBox="0 0 1215.74 384.01"><defs><style>.cls-1{fill:url(#linear-gradient);}.cls-2{fill:url(#linear-gradient-2);}.cls-3{fill:url(#linear-gradient-3);}.cls-4{fill:#fffefa;}</style><linearGradient id="linear-gradient" x1="28.55" y1="359.97" x2="227.31" y2="67.79" gradientUnits="userSpaceOnUse"><stop offset="0" stop-color="#c4c4c2"/><stop offset="0.02" stop-color="#c8c8c6"/><stop offset="0.22" stop-color="#e6e5e2"/><stop offset="0.38" stop-color="#f8f8f4"/><stop offset="0.5" stop-color="#fffefa"/><stop offset="0.62" stop-color="#faf9f5"/><stop offset="0.77" stop-color="#eaeae6"/><stop offset="0.93" stop-color="#d1d1ce"/><stop offset="1" stop-color="#c5c5c2"/></linearGradient><linearGradient id="linear-gradient-2" x1="406.43" y1="403.99" x2="231.82" y2="63.64" gradientUnits="userSpaceOnUse"><stop offset="0.1" stop-color="#fffefa"/><stop offset="0.34" stop-color="#fdfcf8"/><stop offset="0.44" stop-color="#f6f5f1"/><stop offset="0.52" stop-color="#e9e9e5"/><stop offset="0.58" stop-color="#d8d8d5"/><stop offset="0.59" stop-color="#d6d6d3"/><stop offset="0.6" stop-color="#d7d7d4"/><stop offset="0.93" stop-color="#fffefa"/></linearGradient><linearGradient id="linear-gradient-3" x1="426.77" y1="393.56" x2="252.17" y2="53.21" xlink:href="#linear-gradient-2"/></defs><path class="cls-1" d="M264.45,3a437.9,437.9,0,0,1-37.62,173.75C187.58,265.34,120,338.69,35.74,384c-1-1.21-2-2.42-3-3.66l-.08-.09A238.66,238.66,0,0,1,0,317.65C112.2,257.37,188.64,139.11,189.19,2.89h0A238.07,238.07,0,0,1,226.34,0,240.77,240.77,0,0,1,264.45,3Z"/><path class="cls-2" d="M264.44,3a241.26,241.26,0,0,0-75.22-.14,437.74,437.74,0,0,0,37.62,173.9,439.77,439.77,0,0,0,34.68,63.54,522.41,522.41,0,0,0,53.56-55.14A356.73,356.73,0,0,1,264.57,3.07.15.15,0,0,0,264.44,3Z"/><path class="cls-3" d="M371.67,257.21A409.1,409.1,0,0,1,319,310.56a428.78,428.78,0,0,0,98.39,73.13,238.48,238.48,0,0,0,35.41-66.5A359.48,359.48,0,0,1,371.67,257.21Z"/><path class="cls-4" d="M420.82,99.79C367.79,262.92,215.66,381.33,35.48,384A237.14,237.14,0,0,1,0,317.68q14.51,1.24,29.33,1.24c166,0,304.71-116.74,338.54-272.59A240.49,240.49,0,0,1,420.82,99.79Z"/><path class="cls-4" d="M634.91,186.15V289.07H614.6V276.45A46.15,46.15,0,0,1,579.5,292c-29.38,0-51.26-22.48-51.26-54.42S550.12,183,579.5,183a46.32,46.32,0,0,1,35.1,15.78V186.15ZM614.6,237.61c0-21.1-14.59-34.5-32.73-34.5s-32.54,14.39-32.54,34.5,14.4,34.51,32.54,34.51S614.6,258.71,614.6,237.61Z"/><path class="cls-4" d="M684.59,289.27V144.74h21.09V289.27Z"/><path class="cls-4" d="M854.94,186.35v89.91c0,37.06-20.11,56.78-51.46,56.78-23.66,0-37.86-10.84-46.14-21.29l15.57-13.61a35.24,35.24,0,0,0,29.58,15c18.93,0,31.35-12.23,31.35-34.71v-.59a46.8,46.8,0,0,1-34.11,14.4c-29.38,0-51.26-22.48-51.26-54.42s21.88-54.62,51.26-54.62c14.39,0,26.42,6.31,35.1,15.78V186.35Zm-20.11,51.46c0-21.1-14.59-34.51-32.73-34.51s-32.54,14.4-32.54,34.51,14.4,34.5,32.54,34.5S834.83,258.91,834.83,237.81Z"/><path class="cls-4" d="M984.47,257.33l15.77,13.41C989,283.75,971.85,292,951.94,292c-31.55,0-54.42-23.46-54.42-55,0-30.37,22.28-54,53.23-54s53.44,23.66,53.44,54h-.2a71.73,71.73,0,0,1-.59,9.27H919c3.15,15.57,15,26.42,32.93,26.42A40.74,40.74,0,0,0,984.47,257.33Zm-65.26-29.58H982.7c-3.36-14.79-14.6-25.24-32-25.24C933.6,202.51,922.56,213,919.21,227.75Z"/><path class="cls-4" d="M1215.74,229.53v59.74h-21.29V230.91c0-17.75-9.07-27.61-25-27.61-16.76,0-27.61,10.45-27.61,32.14v53.83h-21.09V230.91c0-17.75-9.07-27.61-25-27.61-16.76,0-27.8,10.45-27.8,32.14v53.83h-21.1V186.35h20.11v11.43a46.71,46.71,0,0,1,33.91-14.39c17.55,0,29.38,6.9,35.69,19.52a47,47,0,0,1,38.25-19.52C1202.14,183.39,1215.74,200.15,1215.74,229.53Z"/></svg>