<svg id="Layer_1" data-name="Layer 1" xmlns="http://www.w3.org/2000/svg" xmlns:xlink="http://www.w3.org/1999/xlink" viewBox="0 0 1223.58 384.35"><defs><style>.cls-1{fill:url(#linear-gradient);}.cls-2{fill:url(#linear-gradient-2);}.cls-3{fill:url(#linear-gradient-3);}.cls-4{fill:#fff;}</style><linearGradient id="linear-gradient" x1="28.57" y1="360.29" x2="227.51" y2="67.85" gradientUnits="userSpaceOnUse"><stop offset="0" stop-color="#666"/><stop offset="0.1" stop-color="#8f8f8f"/><stop offset="0.23" stop-color="#b9b9b9"/><stop offset="0.34" stop-color="#d7d7d7"/><stop offset="0.43" stop-color="#e9e9e9"/><stop offset="0.5" stop-color="#f0f0f0"/><stop offset="0.57" stop-color="#ebebeb"/><stop offset="0.65" stop-color="#dbdbdb"/><stop offset="0.74" stop-color="#c2c2c2"/><stop offset="0.84" stop-color="#9f9f9f"/><stop offset="0.91" stop-color="gray"/></linearGradient><linearGradient id="linear-gradient-2" x1="406.79" y1="404.35" x2="232.03" y2="63.7" gradientUnits="userSpaceOnUse"><stop offset="0.1" stop-color="#fff"/><stop offset="0.23" stop-color="#fdfdfd"/><stop offset="0.29" stop-color="#f6f6f6"/><stop offset="0.34" stop-color="#e9e9e9"/><stop offset="0.37" stop-color="#d7d7d7"/><stop offset="0.4" stop-color="silver"/><stop offset="0.43" stop-color="#a4a4a4"/><stop offset="0.46" stop-color="#838383"/><stop offset="0.46" stop-color="gray"/><stop offset="0.59" stop-color="#acacac"/><stop offset="0.74" stop-color="#d9d9d9"/><stop offset="0.86" stop-color="#f5f5f5"/><stop offset="0.93" stop-color="#fff"/></linearGradient><linearGradient id="linear-gradient-3" x1="427.15" y1="393.91" x2="252.39" y2="53.25" xlink:href="#linear-gradient-2"/></defs><path class="cls-1" d="M264.68,3A438.3,438.3,0,0,1,227,176.94C187.74,265.58,120.11,339,35.77,384.35c-1-1.21-2-2.42-3-3.67l-.09-.08A238.93,238.93,0,0,1,0,317.93c112.3-60.33,188.81-178.7,189.36-315h0A238.36,238.36,0,0,1,226.54,0,241,241,0,0,1,264.68,3Z"/><path class="cls-2" d="M264.68,3a241.3,241.3,0,0,0-75.29-.15A438.16,438.16,0,0,0,227,176.94a439.67,439.67,0,0,0,34.72,63.6,525.28,525.28,0,0,0,53.6-55.19A357.07,357.07,0,0,1,264.8,3.07.15.15,0,0,0,264.68,3Z"/><path class="cls-3" d="M372,257.44a409.86,409.86,0,0,1-52.72,53.4A429.57,429.57,0,0,0,417.76,384a238.83,238.83,0,0,0,35.44-66.57A359.79,359.79,0,0,1,372,257.44Z"/><path class="cls-4" d="M421.19,99.88C368.12,263.15,215.85,381.67,35.51,384.3A237.61,237.61,0,0,1,0,318q14.52,1.26,29.35,1.24c166.13,0,305-116.84,338.85-272.83A240.68,240.68,0,0,1,421.19,99.88Z"/><path class="cls-4" d="M638.3,185V288.69H617.83V276a46.47,46.47,0,0,1-35.36,15.7c-29.61,0-51.66-22.65-51.66-54.84s22.05-55,51.66-55a46.63,46.63,0,0,1,35.36,15.89V185Zm-20.47,51.86c0-21.26-14.7-34.77-33-34.77s-32.78,14.5-32.78,34.77,14.5,34.77,32.78,34.77S617.83,258.09,617.83,236.83Z"/><path class="cls-4" d="M688.36,288.88V143.25h21.25V288.88Z"/><path class="cls-4" d="M860,185.17v90.6c0,37.35-20.26,57.22-51.85,57.22-23.84,0-38.15-10.93-46.5-21.46l15.7-13.7a35.49,35.49,0,0,0,29.8,15.09c19.08,0,31.59-12.31,31.59-35v-.6a47.17,47.17,0,0,1-34.37,14.51c-29.6,0-51.66-22.66-51.66-54.84s22.06-55,51.66-55c14.51,0,26.62,6.36,35.37,15.9V185.17ZM839.75,237c0-21.26-14.71-34.77-33-34.77S774,216.76,774,237s14.51,34.77,32.79,34.77S839.75,258.29,839.75,237Z"/><path class="cls-4" d="M990.54,256.7l15.89,13.51c-11.32,13.11-28.61,21.46-48.67,21.46-31.79,0-54.84-23.65-54.84-55.44,0-30.59,22.45-54.43,53.64-54.43s53.85,23.84,53.85,54.43h-.2a70.93,70.93,0,0,1-.6,9.34h-85c3.17,15.7,15.1,26.63,33.18,26.63A41,41,0,0,0,990.54,256.7Zm-65.77-29.8h64c-3.38-14.91-14.7-25.43-32.19-25.43C939.28,201.47,928.15,212,924.77,226.9Z"/><path class="cls-4" d="M1223.58,228.68v60.2h-21.45V230.07c0-17.88-9.14-27.81-25.24-27.81-16.89,0-27.81,10.53-27.81,32.38v54.24h-21.26V230.07c0-17.88-9.14-27.81-25.23-27.81-16.89,0-28,10.53-28,32.38v54.24h-21.26V185.17h20.27V196.7a47.05,47.05,0,0,1,34.17-14.51c17.69,0,29.61,7,36,19.67a47.33,47.33,0,0,1,38.55-19.67C1209.87,182.19,1223.58,199.08,1223.58,228.68Z"/></svg>