<svg id="Layer_1" data-name="Layer 1" xmlns="http://www.w3.org/2000/svg" xmlns:xlink="http://www.w3.org/1999/xlink" viewBox="0 0 1176.44 371.66"><defs><style>.cls-1{fill:#fffefa;}.cls-2{fill:url(#linear-gradient);}.cls-3{fill:url(#linear-gradient-2);}.cls-4{fill:url(#linear-gradient-3);}.cls-5{fill:#29ffb2;}</style><linearGradient id="linear-gradient" x1="27.63" y1="348.39" x2="220" y2="65.61" gradientUnits="userSpaceOnUse"><stop offset="0.05" stop-color="#078296"/><stop offset="0.11" stop-color="#0a8f99"/><stop offset="0.27" stop-color="#12ad9f"/><stop offset="0.4" stop-color="#17bfa4"/><stop offset="0.5" stop-color="#19c6a5"/><stop offset="0.59" stop-color="#17c1a3"/><stop offset="0.69" stop-color="#12b19f"/><stop offset="0.81" stop-color="#0a9898"/><stop offset="0.91" stop-color="#007c90"/></linearGradient><linearGradient id="linear-gradient-2" x1="393.35" y1="391" x2="224.37" y2="61.6" gradientUnits="userSpaceOnUse"><stop offset="0.1" stop-color="#29ffb2"/><stop offset="0.2" stop-color="#28fcb1"/><stop offset="0.28" stop-color="#26f3af"/><stop offset="0.34" stop-color="#21e3ab"/><stop offset="0.41" stop-color="#1bcca6"/><stop offset="0.46" stop-color="#12af9f"/><stop offset="0.52" stop-color="#088c97"/><stop offset="0.53" stop-color="#078796"/><stop offset="0.54" stop-color="#098f98"/><stop offset="0.64" stop-color="#14bca1"/><stop offset="0.72" stop-color="#1bd8a7"/><stop offset="0.76" stop-color="#1ee2a9"/><stop offset="0.77" stop-color="#1fe5aa"/><stop offset="0.86" stop-color="#26f7b0"/><stop offset="0.93" stop-color="#29feb2"/></linearGradient><linearGradient id="linear-gradient-3" x1="413.04" y1="380.89" x2="244.06" y2="51.49" xlink:href="#linear-gradient-2"/></defs><path class="cls-1" d="M614.3,180.16v99.61H594.64V267.56a44.67,44.67,0,0,1-34,15.07c-28.43,0-49.61-21.75-49.61-52.66s21.18-52.86,49.61-52.86a44.82,44.82,0,0,1,34,15.26V180.16ZM594.64,230c0-20.42-14.12-33.4-31.68-33.4S531.48,210.5,531.48,230s13.93,33.39,31.48,33.39S594.64,250.38,594.64,230Z"/><path class="cls-1" d="M662.38,280V140.09H682.8V280Z"/><path class="cls-1" d="M827.25,180.35v87c0,35.87-19.47,55-49.81,55-22.9,0-36.64-10.5-44.65-20.61l15.07-13.17a34.09,34.09,0,0,0,28.63,14.5c18.32,0,30.34-11.83,30.34-33.58v-.58a45.32,45.32,0,0,1-33,13.94c-28.44,0-49.62-21.76-49.62-52.67s21.18-52.86,49.62-52.86a45.45,45.45,0,0,1,34,15.26V180.35Zm-19.47,49.81c0-20.42-14.12-33.4-31.67-33.4s-31.49,13.93-31.49,33.4,13.93,33.39,31.49,33.39S807.78,250.58,807.78,230.16Z"/><path class="cls-1" d="M952.61,249.05l15.27,13c-10.88,12.6-27.48,20.61-46.75,20.61-30.54,0-52.67-22.71-52.67-53.24,0-29.38,21.56-52.28,51.52-52.28s51.71,22.9,51.71,52.28h-.19a68.77,68.77,0,0,1-.57,9H889.26c3,15.08,14.5,25.57,31.87,25.57A39.4,39.4,0,0,0,952.61,249.05Zm-63.16-28.63h61.44C947.65,206.11,936.77,196,920,196,903.38,196,892.69,206.11,889.45,220.42Z"/><path class="cls-1" d="M1176.44,222.14V280h-20.61V223.48c0-17.18-8.77-26.72-24.23-26.72-16.22,0-26.72,10.12-26.72,31.11V280h-20.41V223.48c0-17.18-8.78-26.72-24.24-26.72-16.22,0-26.91,10.12-26.91,31.11V280h-20.41V180.35h19.46v11.07a45.2,45.2,0,0,1,32.82-13.93c17,0,28.44,6.68,34.54,18.89a45.46,45.46,0,0,1,37-18.89C1163.28,177.49,1176.44,193.71,1176.44,222.14Z"/><path class="cls-2" d="M255.94,2.93a423.87,423.87,0,0,1-36.4,168.16c-38,85.72-103.4,156.7-184.95,200.57-1-1.18-1.9-2.35-2.85-3.55l-.09-.08A231.24,231.24,0,0,1,0,307.43C108.59,249.09,182.57,134.63,183.1,2.79h0a233.16,233.16,0,0,1,72.81.14Z"/><path class="cls-3" d="M255.93,2.93a233.1,233.1,0,0,0-72.8-.14,423.88,423.88,0,0,0,36.41,168.3,425,425,0,0,0,33.57,61.5,508,508,0,0,0,51.83-53.36A345.33,345.33,0,0,1,256.06,3,.17.17,0,0,0,255.93,2.93Z"/><path class="cls-4" d="M359.72,248.94a396.09,396.09,0,0,1-51,51.63A415.25,415.25,0,0,0,404,371.35,230.77,230.77,0,0,0,438.23,307,348.19,348.19,0,0,1,359.72,248.94Z"/><path class="cls-5" d="M407.28,96.58C356,254.46,208.72,369.06,34.34,371.6A229.61,229.61,0,0,1,0,307.46q14,1.21,28.38,1.2c160.65,0,294.91-113,327.66-263.82A232.32,232.32,0,0,1,407.28,96.58Z"/></svg>