<?xml version="1.0" encoding="utf-8"?>
<!-- Generator: Adobe Illustrator 26.0.1, SVG Export Plug-In . SVG Version: 6.00 Build 0)  -->
<svg version="1.1" id="Layer_1" xmlns="http://www.w3.org/2000/svg" xmlns:xlink="http://www.w3.org/1999/xlink" x="0px" y="0px"
	 viewBox="0 0 1000 1000" style="enable-background:new 0 0 1000 1000;" xml:space="preserve">
<style type="text/css">
	.st0{fill:#19084D;}
	.st1{fill:#29FFB2;}
	.st2{fill:url(#SVGID_1_);}
	.st3{fill:url(#SVGID_00000024720402478081637460000003376761325456537012_);}
	.st4{fill:url(#SVGID_00000125580366846877538140000007496348727331575961_);}
	.st5{fill:url(#SVGID_00000160171957150083849820000006972761016213710210_);}
</style>
<g>
	<g>
		<path class="st0" d="M500,988.45c-66.87,0-131.74-12.91-192.82-38.38c-58.99-24.6-111.97-59.81-157.47-104.67
			c-45.5-44.86-81.22-97.09-106.18-155.26C17.7,629.92,4.6,565.95,4.6,500c0-65.95,13.1-129.92,38.94-190.15
			c24.96-58.17,60.68-110.4,106.18-155.26c45.5-44.85,98.48-80.07,157.47-104.67C368.26,24.46,433.13,11.55,500,11.55
			c66.87,0,131.74,12.91,192.82,38.38c58.99,24.6,111.97,59.81,157.47,104.67c45.5,44.86,81.22,97.09,106.18,155.26
			c25.84,60.23,38.94,124.2,38.94,190.15c0,65.95-13.1,129.92-38.94,190.15c-24.96,58.17-60.68,110.4-106.18,155.26
			c-45.5,44.85-98.48,80.07-157.47,104.67C631.74,975.54,566.87,988.45,500,988.45z M500,19.55C231.24,19.55,12.6,235.08,12.6,500
			c0,264.92,218.65,480.45,487.4,480.45S987.41,764.92,987.41,500C987.41,235.08,768.76,19.55,500,19.55z"/>
	</g>
	<g>
		<polygon class="st1" points="500,35.46 214.83,508.75 500,676.69 785.17,508.75 		"/>
		<linearGradient id="SVGID_1_" gradientUnits="userSpaceOnUse" x1="675.353" y1="703.7907" x2="474.2032" y2="21.9272">
			<stop  offset="0" style="stop-color:#078796"/>
			<stop  offset="0.0901" style="stop-color:#0C9C9A"/>
			<stop  offset="0.2512" style="stop-color:#14BAA1"/>
			<stop  offset="0.4088" style="stop-color:#1AD0A5"/>
			<stop  offset="0.5595" style="stop-color:#1DDDA8"/>
			<stop  offset="0.6962" style="stop-color:#1EE2A9"/>
			<stop  offset="0.7161" style="stop-color:#1FE5AA"/>
			<stop  offset="0.8826" style="stop-color:#26F7B0"/>
			<stop  offset="1" style="stop-color:#29FEB2"/>
		</linearGradient>
		<polygon class="st2" points="500,676.69 785.17,508.75 500,35.46 		"/>
		
			<linearGradient id="SVGID_00000072981072825630114110000005062558971366651306_" gradientUnits="userSpaceOnUse" x1="214.828" y1="527.8282" x2="785.172" y2="527.8282">
			<stop  offset="0" style="stop-color:#29FFB2"/>
			<stop  offset="0.0833" style="stop-color:#27F7B0"/>
			<stop  offset="0.213" style="stop-color:#20E1AB"/>
			<stop  offset="0.3727" style="stop-color:#16BDA3"/>
			<stop  offset="0.555" style="stop-color:#088B97"/>
			<stop  offset="0.5701" style="stop-color:#078796"/>
			<stop  offset="0.6036" style="stop-color:#098E97"/>
			<stop  offset="0.6513" style="stop-color:#0DA09B"/>
			<stop  offset="0.7073" style="stop-color:#15BFA2"/>
			<stop  offset="0.7596" style="stop-color:#1EE2A9"/>
			<stop  offset="0.7707" style="stop-color:#1FE5AA"/>
			<stop  offset="0.8633" style="stop-color:#26F7B0"/>
			<stop  offset="0.9286" style="stop-color:#29FEB2"/>
		</linearGradient>
		<polygon style="fill:url(#SVGID_00000072981072825630114110000005062558971366651306_);" points="500,378.97 214.83,508.75 
			500,676.69 785.17,508.75 		"/>
		<polygon class="st1" points="500,731.31 214.83,562.87 500,964.54 785.17,562.87 		"/>
		
			<linearGradient id="SVGID_00000070807319125459026190000012871779232536209803_" gradientUnits="userSpaceOnUse" x1="500" y1="527.8282" x2="888.317" y2="527.8282">
			<stop  offset="0.0466" style="stop-color:#078296"/>
			<stop  offset="0.1704" style="stop-color:#0A8F99"/>
			<stop  offset="0.5072" style="stop-color:#12AD9F"/>
			<stop  offset="0.7956" style="stop-color:#17BFA4"/>
			<stop  offset="1" style="stop-color:#19C6A5"/>
		</linearGradient>
		<polygon style="fill:url(#SVGID_00000070807319125459026190000012871779232536209803_);" points="500,676.69 785.17,508.75 
			500,378.97 		"/>
		
			<linearGradient id="SVGID_00000088833488560158852320000003721732631616058511_" gradientUnits="userSpaceOnUse" x1="323.3129" y1="763.7056" x2="745.2368" y2="763.7056">
			<stop  offset="0" style="stop-color:#29FFB2"/>
			<stop  offset="0" style="stop-color:#27F7B0"/>
			<stop  offset="0" style="stop-color:#20E1AB"/>
			<stop  offset="0" style="stop-color:#16BDA3"/>
			<stop  offset="0" style="stop-color:#088B97"/>
			<stop  offset="0" style="stop-color:#078796"/>
			<stop  offset="0.1343" style="stop-color:#098E97"/>
			<stop  offset="0.3256" style="stop-color:#0DA09B"/>
			<stop  offset="0.5501" style="stop-color:#15BFA2"/>
			<stop  offset="0.7596" style="stop-color:#1EE2A9"/>
			<stop  offset="0.7754" style="stop-color:#1FE5AA"/>
			<stop  offset="0.9071" style="stop-color:#26F7B0"/>
			<stop  offset="1" style="stop-color:#29FEB2"/>
		</linearGradient>
		<polygon style="fill:url(#SVGID_00000088833488560158852320000003721732631616058511_);" points="500,964.54 785.17,562.87 
			500,731.31 		"/>
	</g>
</g>
</svg>
