<?xml version="1.0" encoding="iso-8859-1"?>
<!-- Generator: Adobe Illustrator 26.0.3, SVG Export Plug-In . SVG Version: 6.00 Build 0)  -->
<svg version="1.1" id="Layer_1" xmlns="http://www.w3.org/2000/svg" xmlns:xlink="http://www.w3.org/1999/xlink" x="0px" y="0px"
	 width="2000px" height="856.453px" viewBox="0 0 2000 856.453" enable-background="new 0 0 2000 856.453" xml:space="preserve">
<path fill="#3BB1E6" d="M387.655,305.036c-34.08-34.189-75.144-51.286-123.196-51.286c-48.164,0-89.288,17.097-123.365,51.286
	c-34.08,34.08-51.12,75.146-51.12,123.199c0,48.167,17.04,89.288,51.12,123.367c34.077,34.08,75.201,51.117,123.365,51.117h87.242
	h87.242V428.235C438.943,380.182,421.846,339.116,387.655,305.036z M351.701,515.475h-87.242c-24.083,0-44.644-8.519-61.684-25.556
	c-17.038-17.042-25.559-37.6-25.559-61.684c0-23.969,8.521-44.473,25.559-61.515c17.04-17.152,37.6-25.73,61.684-25.73
	c23.967,0,44.473,8.578,61.513,25.73c17.152,17.042,25.73,37.546,25.73,61.515V515.475z"/>
<rect x="478.338" y="79.266" fill="#3BB1E6" width="87.242" height="523.454"/>
<path fill="#FAAE38" d="M1268.506,305.044c-34.08-34.189-75.146-51.286-123.199-51.286c-48.167,0-89.288,17.097-123.367,51.286
	c-34.077,34.08-51.117,75.146-51.117,123.199c0,48.167,17.04,89.288,51.117,123.367c34.08,34.08,75.201,51.117,123.367,51.117
	v-87.24h87.245v-87.245h-87.245v87.24c-24.083,0-44.642-8.519-61.684-25.556c-17.038-17.042-25.556-37.6-25.556-61.684
	c0-23.969,8.519-44.473,25.556-61.515c17.042-17.152,37.6-25.73,61.684-25.73c23.969,0,44.473,8.578,61.515,25.73
	c17.151,17.042,25.73,37.546,25.73,61.515h87.24C1319.792,380.19,1302.695,339.124,1268.506,305.044z"/>
<g>
	<path fill="#3BB1E6" d="M770.101,515.488h87.245v-87.245h-87.245v87.24c-24.083,0-44.642-8.519-61.684-25.556
		c-17.038-17.042-25.556-37.6-25.556-61.684c0-23.969,8.519-44.473,25.556-61.515c17.042-17.152,37.6-25.73,61.684-25.73
		c23.969,0,44.473,8.578,61.515,25.73c17.152,17.042,25.73,37.546,25.73,61.515h87.24c0-48.053-17.097-89.119-51.286-123.199
		c-34.08-34.189-75.146-51.286-123.199-51.286c-48.167,0-89.288,17.097-123.367,51.286c-34.077,34.08-51.117,75.146-51.117,123.199
		c0,48.167,17.04,89.288,51.117,123.367c34.08,34.08,75.201,51.117,123.367,51.117V515.488z"/>
	<path fill="#3BB1E6" d="M857.353,602.723c0,23.956-8.546,44.457-25.731,61.501c-17.045,17.138-37.545,25.732-61.502,25.732
		c-24.096,0-44.597-8.594-61.642-25.684l-61.688,61.688c34.09,34.137,75.184,51.227,123.33,51.227
		c48.052,0,89.1-17.09,123.19-51.275c34.183-34.089,51.275-75.137,51.275-123.19v-87.232h-87.232V602.723z"/>
</g>
<path fill="#FAAE38" d="M1858.752,305.017c-34.09-34.183-75.185-51.275-123.237-51.275c-41.655,0-78.033,12.795-109.133,38.339
	c-31.101-25.544-67.386-38.339-108.948-38.339c-48.146,0-89.287,17.091-123.377,51.275c-34.09,34.09-51.088,75.185-51.088,123.237
	v174.464h87.233V428.254c0-24.004,8.499-44.505,25.544-61.549c17.044-17.138,37.592-25.731,61.688-25.731
	c21.528,0,40.255,6.958,56.225,20.827c1.775,1.495,3.549,3.175,5.277,4.904c17.185,17.044,25.731,37.546,25.731,61.549v174.464
	h43.616h43.617V428.254c0-23.863-4.203-46.045-12.702-66.499c15.924-13.869,34.744-20.781,56.318-20.781
	c24.004,0,44.504,8.593,61.549,25.731c17.139,17.044,25.731,37.546,25.731,61.549v174.464h87.233V428.254
	C1910.026,380.202,1892.935,339.107,1858.752,305.017z"/>
</svg>
